<svg width="173" height="30" viewBox="0 0 173 30" fill="none" xmlns="http://www.w3.org/2000/svg">
<mask id="mask0_920_1170" style="mask-type:luminance" maskUnits="userSpaceOnUse" x="0" y="0" width="173" height="30">
<path d="M172.89 0.777527H0V29.5925H172.89V0.777527Z" fill="white"/>
</mask>
<g mask="url(#mask0_920_1170)">
<mask id="mask1_920_1170" style="mask-type:luminance" maskUnits="userSpaceOnUse" x="0" y="0" width="173" height="30">
<path d="M172.89 0.777527H0V29.5925H172.89V0.777527Z" fill="white"/>
</mask>
<g mask="url(#mask1_920_1170)">
<path d="M40.7012 8.31897C42.608 8.31897 44.0172 8.91106 45.3139 10.0929C45.485 10.246 45.485 10.4756 45.3341 10.6264L43.8461 12.173C43.7831 12.236 43.6975 12.272 43.6075 12.272C43.5174 12.272 43.4319 12.236 43.3688 12.173C42.6642 11.5449 41.73 11.2005 40.7958 11.2005C38.6414 11.2005 37.0588 12.9947 37.0588 15.131C37.0588 17.2471 38.6594 19.0031 40.8138 19.0031C41.7097 19.0031 42.6845 18.6789 43.3688 18.0891C43.5017 17.9742 43.7493 17.9742 43.8641 18.1071L45.3521 19.6897C45.485 19.8247 45.4669 20.0724 45.3341 20.2052C44.0352 21.4658 42.3986 22.0557 40.7012 22.0557C36.8877 22.0557 33.8194 19.0233 33.8194 15.2098C33.8194 11.3941 36.8877 8.31897 40.7012 8.31897ZM54.9601 8.31897C58.7734 8.31897 61.8238 11.3896 61.8238 15.203C61.8238 19.0188 58.7734 22.0512 54.9601 22.0512C51.1467 22.0512 48.1166 19.0188 48.1166 15.203C48.1166 11.3896 51.1467 8.31897 54.9601 8.31897ZM54.9601 19.0008C57.0582 19.0008 58.7734 17.2831 58.7734 15.203C58.7734 13.105 57.0582 11.3693 54.9601 11.3693C52.8823 11.3693 51.1646 13.105 51.1646 15.203C51.1646 17.2831 52.8823 19.0008 54.9601 19.0008Z" fill="#002163"/>
<path d="M65.6556 8.87275C65.6556 8.67237 65.8175 8.51031 66.0181 8.51031H73.9082C74.1087 8.51031 74.2707 8.67237 74.2707 8.87275V10.9505C74.2707 11.1509 74.1087 11.313 73.9082 11.313H68.6293V14.0595H72.9763C73.1653 14.0595 73.3388 14.2306 73.3388 14.4196V16.4997C73.3388 16.6911 73.1653 16.8622 72.9763 16.8622H68.6293V21.495C68.6293 21.6864 68.4581 21.8575 68.2668 21.8575H66.0181C65.8175 21.8575 65.6556 21.6954 65.6556 21.495V8.87275Z" fill="#002163"/>
<path d="M78.6742 8.87275C78.6742 8.67237 78.8361 8.51031 79.0367 8.51031H86.9291C87.1273 8.51031 87.2893 8.67237 87.2893 8.87275V10.9505C87.2893 11.1509 87.1273 11.313 86.9291 11.313H81.6479V14.0595H85.9949C86.1862 14.0595 86.3574 14.2306 86.3574 14.4196V16.4997C86.3574 16.6911 86.1862 16.8622 85.9949 16.8622H81.6479V21.495C81.6479 21.6864 81.4767 21.8575 81.2854 21.8575H79.0367C78.8361 21.8575 78.6742 21.6954 78.6742 21.495V8.87275Z" fill="#002163"/>
<path d="M91.6968 8.87281C91.6968 8.68143 91.868 8.51038 92.0593 8.51038H94.3467C94.5357 8.51038 94.7069 8.68143 94.7069 8.87281V21.4951C94.7069 21.6864 94.5357 21.8575 94.3467 21.8575H92.0593C91.868 21.8575 91.6968 21.6864 91.6968 21.4951V8.87281ZM105.803 8.31899C107.709 8.31899 109.119 8.91108 110.418 10.093C110.589 10.246 110.589 10.4756 110.436 10.6264L108.948 12.173C108.885 12.236 108.799 12.2721 108.712 12.2721C108.621 12.2721 108.536 12.236 108.473 12.173C107.768 11.5449 106.832 11.2005 105.9 11.2005C103.746 11.2005 102.161 12.9947 102.161 15.131C102.161 17.2471 103.763 19.0031 105.918 19.0031C106.814 19.0031 107.786 18.6789 108.473 18.0891C108.605 17.9743 108.853 17.9743 108.968 18.1071L110.456 19.6897C110.589 19.8248 110.568 20.0724 110.436 20.2052C109.139 21.4658 107.5 22.0557 105.803 22.0557C101.99 22.0557 98.9208 19.0234 98.9208 15.2099C98.9208 11.3941 101.992 8.31899 105.803 8.31899ZM114.63 8.87281C114.63 8.67243 114.792 8.51038 114.992 8.51038H122.884C123.083 8.51038 123.245 8.67243 123.245 8.87281V10.9506C123.245 11.151 123.083 11.313 122.884 11.313H117.603V13.6768H121.95C122.142 13.6768 122.313 13.8501 122.313 14.0392V16.1193C122.313 16.3174 122.151 16.4795 121.95 16.4795H117.603V19.0548H122.884C123.083 19.0548 123.245 19.2169 123.245 19.4173V21.4951C123.245 21.6955 123.083 21.8575 122.884 21.8575H114.992C114.792 21.8575 114.63 21.6955 114.63 21.4951V8.87281ZM126.89 21.1147C127.995 19.6649 130.818 15.8334 131.941 14.1158C132.189 13.7353 132.437 13.2018 132.437 12.666C132.437 11.9412 131.829 11.2906 130.76 11.2906C129.978 11.2906 129.271 11.8443 128.909 12.245C128.756 12.3959 128.528 12.3959 128.375 12.245L127.214 11.0632C127.081 10.9484 127.063 10.721 127.196 10.5679C127.196 10.5679 128.74 8.69722 131.009 8.69722C133.736 8.69722 135.336 10.4351 135.336 12.5512C135.336 13.562 135.05 14.1338 134.593 15.0298C133.985 16.1171 132.421 18.1566 131.525 19.4173H134.879C135.07 19.4173 135.242 19.5884 135.242 19.7798V21.4951C135.242 21.6864 135.07 21.8575 134.879 21.8575H127.254C127.054 21.8575 126.892 21.6955 126.892 21.4951V21.1147H126.89ZM136.898 18.8072V16.7856L143.553 8.79628C143.609 8.73773 143.665 8.68143 143.839 8.68143H145.212C145.41 8.68143 145.572 8.84354 145.572 9.04392L145.592 16.8622H147.098C147.307 16.8622 147.461 17.0131 147.461 17.2044V18.7892C147.461 18.9873 147.299 19.1494 147.098 19.1494H145.592L145.61 21.4951C145.61 21.6864 145.439 21.8575 145.25 21.8575H143.208C143.019 21.8575 142.848 21.6864 142.848 21.4951V19.1697H137.263C137.051 19.1719 136.898 19.0008 136.898 18.8072ZM142.922 16.8059V13.2581L139.892 16.8037H142.922V16.8059ZM149.957 21.2857L152.436 17.9698L150.034 14.8046C149.845 14.557 149.995 14.2329 150.32 14.2329H152.665C152.816 14.2329 152.931 14.3094 152.97 14.3859L154.036 15.9505H154.093L155.178 14.3859C155.216 14.3094 155.293 14.2329 155.484 14.2329H157.827C158.152 14.2329 158.304 14.557 158.113 14.8046L155.711 17.9495L158.134 21.2857C158.304 21.5334 158.152 21.8575 157.847 21.8575H155.541C155.407 21.8575 155.313 21.763 155.254 21.6864L154.093 20.0454H154.036L152.816 21.7045C152.76 21.781 152.645 21.8575 152.513 21.8575H150.243C149.919 21.8598 149.786 21.5356 149.957 21.2857ZM161.531 21.2857L166.297 11.3311H161.873C161.682 11.3311 161.51 11.16 161.51 10.9709V9.25548C161.51 9.06415 161.682 8.89304 161.873 8.89304H169.916C170.108 8.89304 170.279 9.06415 170.279 9.25548V9.38831L164.579 21.3083C164.352 21.7833 164.084 21.8598 163.798 21.8598H161.911C161.702 21.8598 161.531 21.7067 161.531 21.4974V21.2857ZM12.3657 9.0011C12.073 9.0011 11.8344 9.30504 11.8344 9.68096C11.8344 10.0569 12.073 10.3631 12.3657 10.3631C12.6583 10.3631 12.8947 10.0569 12.8947 9.68096C12.8947 9.30279 12.6583 9.0011 12.3657 9.0011ZM16.7397 25.3086C16.697 24.2596 18.4731 23.7643 20.4137 23.5347C20.9292 23.0034 21.2578 22.2222 21.2578 21.3488C21.2578 20.5114 20.6838 19.8315 19.9792 19.8315H19.3984V18.8793C19.3984 17.5894 11.3279 17.5533 11.3279 19.0211L11.3302 19.3588C11.3256 19.406 11.3302 19.4601 11.3302 19.5141V21.4276C11.3302 22.2695 11.5148 23.062 11.8389 23.7508C13.1108 24.039 14.0541 24.5117 14.0248 25.2771C13.9843 26.2699 12.7979 27.051 11.5125 27.3459C12.7236 27.7309 14.0136 27.938 15.353 27.938C16.6429 27.938 17.9261 27.7444 19.1597 27.3594C17.9081 27.0442 16.778 26.2766 16.7397 25.3086ZM19.4974 21.4253V20.786H20.0962C20.3573 20.786 20.569 21.0381 20.569 21.3488C20.569 22.3146 19.9679 23.116 19.1868 23.2555C19.3871 22.6905 19.4974 22.0737 19.4974 21.4253ZM12.0303 19.1629C12.0303 18.7239 13.5701 18.366 15.4723 18.366C17.3745 18.366 18.9144 18.7217 18.9144 19.1629C18.9144 19.6019 17.3745 19.9575 15.4723 19.9575C13.5701 19.9553 12.0303 19.5997 12.0303 19.1629ZM7.75528 15.7119C7.48517 14.8879 7.3366 13.481 7.3366 12.5625C7.3366 10.9349 7.80035 9.2915 8.5995 8.01286C7.9016 7.76298 7.65627 7.35098 7.65627 6.56761C7.65627 5.56808 8.46442 4.75991 9.46395 4.75991C10.2159 4.75991 10.6053 5.09083 10.8777 5.74367C12.1586 4.85671 13.6984 4.34119 15.3597 4.34119C17.1337 4.34119 18.7703 4.931 20.0985 5.92827C20.4159 5.4105 20.7356 5.18988 21.3862 5.18988C22.3857 5.18988 23.1938 6.0003 23.1938 6.99759C23.1938 7.74269 22.9957 8.12991 22.3542 8.40457C23.0093 9.59544 23.3852 10.9709 23.3852 12.4342C23.3852 13.3549 23.2344 14.8879 22.962 15.7141C24.2946 17.5826 25.0893 19.7055 25.0893 22.283C25.0893 22.7355 25.0646 23.1362 25.0173 23.4964C26.942 21.2655 28.1059 18.3592 28.1059 15.1828C28.1059 8.14114 22.3992 2.43445 15.362 2.43445C8.32484 2.43445 2.60912 8.14339 2.60912 15.1851C2.60912 18.3637 3.77522 21.2723 5.70223 23.5032C5.6527 23.143 5.62569 22.7423 5.62569 22.2875C5.62794 19.7077 6.42259 17.5826 7.75528 15.7119ZM15.4791 9.37033C13.9393 9.37033 12.6921 10.9259 12.6921 12.8439C12.6921 14.7641 13.9393 15.0522 15.4791 15.0522C17.0188 15.0522 18.266 14.7619 18.266 12.8439C18.2638 10.9259 17.0166 9.37033 15.4791 9.37033ZM16.5146 11.8128C16.2692 11.8219 15.9811 11.7025 15.792 11.8038C15.6051 11.9254 15.3981 11.8038 15.3981 11.8038C15.2089 11.7025 14.9208 11.8219 14.6754 11.8128C14.2747 11.7993 14.1509 11.169 14.6146 10.7773C15.0784 10.3834 15.5961 10.3743 15.5961 10.3743C15.5961 10.3743 16.1116 10.3811 16.5754 10.7773C17.0369 11.169 16.9176 11.7971 16.5146 11.8128ZM18.3448 9.0011C18.0521 9.0011 17.8136 9.30504 17.8136 9.68096C17.8136 10.0569 18.0521 10.3631 18.3448 10.3631C18.6374 10.3631 18.8761 10.0569 18.8761 9.68096C18.8738 9.30279 18.6352 9.0011 18.3448 9.0011Z" fill="#002163"/>
<path d="M16.5754 10.7772C16.1116 10.3833 15.5961 10.3742 15.5961 10.3742C15.5961 10.3742 15.0783 10.381 14.6146 10.7772C14.1509 11.1689 14.2747 11.797 14.6754 11.8127C14.9208 11.8218 15.2089 11.7024 15.398 11.8037C15.398 11.8037 15.6051 11.9253 15.792 11.8037C15.9811 11.7024 16.2692 11.8218 16.5146 11.8127C16.9176 11.797 17.0369 11.1689 16.5754 10.7772Z" fill="white"/>
<path d="M18.9144 19.1629C18.9144 18.7217 17.3723 18.366 15.4723 18.366C13.5701 18.366 12.0303 18.7217 12.0303 19.1629C12.0303 19.6019 13.5701 19.9575 15.4723 19.9575C17.3723 19.9575 18.9144 19.6019 18.9144 19.1629Z" fill="white"/>
<path d="M20.5712 21.3487C20.5712 21.038 20.3596 20.7859 20.0985 20.7859H19.4996V21.4252C19.4996 22.0735 19.3893 22.6904 19.1913 23.2554C19.9701 23.1158 20.5712 22.3144 20.5712 21.3487ZM25.0105 23.4986C25.0556 23.1406 25.0825 22.7399 25.0825 22.2874C25.0825 19.7076 24.2856 17.5847 22.9552 15.7163C23.2276 14.8901 23.3762 13.357 23.3762 12.4363C23.3762 10.973 23.0003 9.59757 22.3474 8.4067C22.989 8.13204 23.1871 7.74482 23.1871 6.99972C23.1871 6.00244 22.3766 5.19202 21.3794 5.19202C20.7288 5.19202 20.4114 5.41488 20.0917 5.9304C18.7635 4.93313 17.127 4.34332 15.353 4.34332C13.6939 4.34332 12.1496 4.85884 10.8709 5.7458C10.5963 5.09296 10.2068 4.76204 9.4549 4.76204C8.45767 4.76204 7.64947 5.57021 7.64947 6.56974C7.64947 7.35317 7.89486 7.7651 8.59276 8.01499C7.79354 9.29138 7.32985 10.937 7.32985 12.5646C7.32985 13.4853 7.48067 14.8901 7.74853 15.714C6.41809 17.5825 5.62119 19.7076 5.62119 22.2897C5.62119 22.7444 5.64594 23.1451 5.69772 23.5053C7.22174 25.277 9.22755 26.6254 11.508 27.3436C12.7934 27.0486 13.9798 26.2675 14.0203 25.2747C14.0496 24.5071 13.1063 24.0366 11.8344 23.7484C11.5103 23.0596 11.3256 22.2694 11.3256 21.4252V19.5117C11.3256 19.4555 11.3189 19.4014 11.3256 19.3564L11.3211 19.0187C11.3211 17.5532 19.3938 17.5892 19.3938 18.8769V19.8291H19.9747C20.6793 19.8291 21.2533 20.509 21.2533 21.3464C21.2533 22.2199 20.9247 23.001 20.4092 23.5323C18.4686 23.7619 16.6947 24.2572 16.7352 25.3062C16.7758 26.2743 17.9058 27.0419 19.1575 27.3548C21.4312 26.6434 23.4595 25.3062 25.0105 23.4986ZM12.3657 10.3607C12.073 10.3607 11.8344 10.0546 11.8344 9.67859C11.8344 9.30267 12.073 8.99873 12.3657 8.99873C12.6583 8.99873 12.8947 9.30267 12.8947 9.67859C12.8947 10.0546 12.6583 10.3607 12.3657 10.3607ZM15.4791 15.0521C13.9393 15.0521 12.6921 14.7617 12.6921 12.8437C12.6921 10.9258 13.9393 9.37022 15.4791 9.37022C17.0188 9.37022 18.266 10.9258 18.266 12.8437C18.2638 14.764 17.0166 15.0521 15.4791 15.0521ZM18.3448 10.3607C18.0521 10.3607 17.8136 10.0546 17.8136 9.67859C17.8136 9.30267 18.0521 8.99873 18.3448 8.99873C18.6374 8.99873 18.8761 9.30267 18.8761 9.67859C18.8738 10.0546 18.6352 10.3607 18.3448 10.3607Z" fill="white"/>
</g>
</g>
</svg>
