<svg width="314" height="45" viewBox="0 0 314 45" fill="none" xmlns="http://www.w3.org/2000/svg">
<path d="M64.625 11.25C67.9336 11.25 70.3789 12.2773 72.6289 14.3281C72.9258 14.5938 72.9258 14.9922 72.6641 15.2539L70.082 17.9375C69.9727 18.0469 69.8242 18.1094 69.668 18.1094C69.5117 18.1094 69.3633 18.0469 69.2539 17.9375C68.0312 16.8477 66.4102 16.25 64.7891 16.25C61.0508 16.25 58.3047 19.3633 58.3047 23.0703C58.3047 26.7422 61.082 29.7891 64.8203 29.7891C66.375 29.7891 68.0664 29.2266 69.2539 28.2031C69.4844 28.0039 69.9141 28.0039 70.1133 28.2344L72.6953 30.9805C72.9258 31.2148 72.8945 31.6445 72.6641 31.875C70.4102 34.0625 67.5703 35.0859 64.625 35.0859C58.0078 35.0859 52.6836 29.8242 52.6836 23.207C52.6836 16.5859 58.0078 11.25 64.625 11.25ZM89.3672 11.25C95.9844 11.25 101.277 16.5781 101.277 23.1953C101.277 29.8164 95.9844 35.0781 89.3672 35.0781C82.75 35.0781 77.4922 29.8164 77.4922 23.1953C77.4922 16.5781 82.75 11.25 89.3672 11.25ZM89.3672 29.7852C93.0078 29.7852 95.9844 26.8047 95.9844 23.1953C95.9844 19.5547 93.0078 16.543 89.3672 16.543C85.7617 16.543 82.7812 19.5547 82.7812 23.1953C82.7812 26.8047 85.7617 29.7852 89.3672 29.7852Z" fill="white"/>
<path d="M107.926 12.2109C107.926 11.8633 108.207 11.582 108.555 11.582H122.246C122.594 11.582 122.875 11.8633 122.875 12.2109V15.8164C122.875 16.1641 122.594 16.4453 122.246 16.4453H113.086V21.2109H120.629C120.957 21.2109 121.258 21.5078 121.258 21.8359V25.4453C121.258 25.7773 120.957 26.0742 120.629 26.0742H113.086V34.1133C113.086 34.4453 112.789 34.7422 112.457 34.7422H108.555C108.207 34.7422 107.926 34.4609 107.926 34.1133V12.2109Z" fill="white"/>
<path d="M130.516 12.2109C130.516 11.8633 130.797 11.582 131.145 11.582H144.84C145.184 11.582 145.465 11.8633 145.465 12.2109V15.8164C145.465 16.1641 145.184 16.4453 144.84 16.4453H135.676V21.2109H143.219C143.551 21.2109 143.848 21.5078 143.848 21.8359V25.4453C143.848 25.7773 143.551 26.0742 143.219 26.0742H135.676V34.1133C135.676 34.4453 135.379 34.7422 135.047 34.7422H131.145C130.797 34.7422 130.516 34.4609 130.516 34.1133V12.2109Z" fill="white"/>
<path d="M153.113 12.2109C153.113 11.8789 153.41 11.582 153.742 11.582H157.711C158.039 11.582 158.336 11.8789 158.336 12.2109V34.1133C158.336 34.4453 158.039 34.7422 157.711 34.7422H153.742C153.41 34.7422 153.113 34.4453 153.113 34.1133V12.2109ZM177.59 11.25C180.898 11.25 183.344 12.2773 185.598 14.3281C185.895 14.5938 185.895 14.9922 185.629 15.2539L183.047 17.9375C182.938 18.0469 182.789 18.1094 182.637 18.1094C182.48 18.1094 182.332 18.0469 182.223 17.9375C181 16.8477 179.375 16.25 177.758 16.25C174.02 16.25 171.27 19.3633 171.27 23.0703C171.27 26.7422 174.051 29.7891 177.789 29.7891C179.344 29.7891 181.031 29.2266 182.223 28.2031C182.453 28.0039 182.883 28.0039 183.082 28.2344L185.664 30.9805C185.895 31.2148 185.859 31.6445 185.629 31.875C183.379 34.0625 180.535 35.0859 177.59 35.0859C170.973 35.0859 165.648 29.8242 165.648 23.207C165.648 16.5859 170.977 11.25 177.59 11.25ZM192.906 12.2109C192.906 11.8633 193.188 11.582 193.535 11.582H207.23C207.574 11.582 207.855 11.8633 207.855 12.2109V15.8164C207.855 16.1641 207.574 16.4453 207.23 16.4453H198.066V20.5469H205.609C205.941 20.5469 206.238 20.8477 206.238 21.1758V24.7852C206.238 25.1289 205.957 25.4102 205.609 25.4102H198.066V29.8789H207.23C207.574 29.8789 207.855 30.1602 207.855 30.5078V34.1133C207.855 34.4609 207.574 34.7422 207.23 34.7422H193.535C193.188 34.7422 192.906 34.4609 192.906 34.1133V12.2109ZM214.18 33.4531C216.098 30.9375 220.996 24.2891 222.945 21.3086C223.375 20.6484 223.805 19.7227 223.805 18.793C223.805 17.5352 222.75 16.4062 220.895 16.4062C219.539 16.4062 218.312 17.3672 217.684 18.0625C217.418 18.3242 217.023 18.3242 216.758 18.0625L214.742 16.0117C214.512 15.8125 214.48 15.418 214.711 15.1523C214.711 15.1523 217.391 11.9062 221.328 11.9062C226.059 11.9062 228.836 14.9219 228.836 18.5937C228.836 20.3477 228.34 21.3398 227.547 22.8945C226.492 24.7812 223.777 28.3203 222.223 30.5078H228.043C228.375 30.5078 228.672 30.8047 228.672 31.1367V34.1133C228.672 34.4453 228.375 34.7422 228.043 34.7422H214.812C214.465 34.7422 214.184 34.4609 214.184 34.1133V33.4531H214.18ZM231.547 29.4492V25.9414L243.094 12.0781C243.191 11.9766 243.289 11.8789 243.59 11.8789H245.973C246.316 11.8789 246.598 12.1602 246.598 12.5078L246.633 26.0742H249.246C249.609 26.0742 249.875 26.3359 249.875 26.668V29.418C249.875 29.7617 249.594 30.043 249.246 30.043H246.633L246.664 34.1133C246.664 34.4453 246.367 34.7422 246.039 34.7422H242.496C242.168 34.7422 241.871 34.4453 241.871 34.1133V30.0781H232.18C231.812 30.082 231.547 29.7852 231.547 29.4492ZM242 25.9766V19.8203L236.742 25.9727H242V25.9766ZM254.207 33.75L258.508 27.9961L254.34 22.5039C254.012 22.0742 254.273 21.5117 254.836 21.5117H258.906C259.168 21.5117 259.367 21.6445 259.434 21.7773L261.285 24.4922H261.383L263.266 21.7773C263.332 21.6445 263.465 21.5117 263.797 21.5117H267.863C268.426 21.5117 268.691 22.0742 268.359 22.5039L264.191 27.9609L268.395 33.75C268.691 34.1797 268.426 34.7422 267.898 34.7422H263.895C263.664 34.7422 263.5 34.5781 263.398 34.4453L261.383 31.5977H261.285L259.168 34.4766C259.07 34.6094 258.871 34.7422 258.641 34.7422H254.703C254.141 34.7461 253.91 34.1836 254.207 33.75ZM274.289 33.75L282.559 16.4766H274.883C274.551 16.4766 274.254 16.1797 274.254 15.8516V12.875C274.254 12.543 274.551 12.2461 274.883 12.2461H288.84C289.172 12.2461 289.469 12.543 289.469 12.875V13.1055L279.578 33.7891C279.184 34.6133 278.719 34.7461 278.223 34.7461H274.949C274.586 34.7461 274.289 34.4805 274.289 34.1172V33.75Z" fill="white"/>
<path d="M16.9297 11.6445C16.4219 11.6445 16.0078 12.1719 16.0078 12.8242C16.0078 13.4766 16.4219 14.0078 16.9297 14.0078C17.4375 14.0078 17.8477 13.4766 17.8477 12.8242C17.8477 12.168 17.4375 11.6445 16.9297 11.6445ZM24.5195 39.9414C24.4453 38.1211 27.5273 37.2617 30.8945 36.8633C31.7891 35.9414 32.3594 34.5859 32.3594 33.0703C32.3594 31.6172 31.3633 30.4375 30.1406 30.4375H29.1328V28.7852C29.1328 26.5469 15.1289 26.4844 15.1289 29.0312L15.1328 29.6172C15.125 29.6992 15.1328 29.793 15.1328 29.8867V33.207C15.1328 34.668 15.4531 36.043 16.0156 37.2383C18.2227 37.7383 19.8594 38.5586 19.8086 39.8867C19.7383 41.6094 17.6797 42.9648 15.4492 43.4766C17.5508 44.1445 19.7891 44.5039 22.1133 44.5039C24.3516 44.5039 26.5781 44.168 28.7188 43.5C26.5469 42.9531 24.5859 41.6211 24.5195 39.9414ZM29.3047 33.2031V32.0938H30.3438C30.7969 32.0938 31.1641 32.5312 31.1641 33.0703C31.1641 34.7461 30.1211 36.1367 28.7656 36.3789C29.1133 35.3984 29.3047 34.3281 29.3047 33.2031ZM16.3477 29.2773C16.3477 28.5156 19.0195 27.8945 22.3203 27.8945C25.6211 27.8945 28.293 28.5117 28.293 29.2773C28.293 30.0391 25.6211 30.6562 22.3203 30.6562C19.0195 30.6523 16.3477 30.0352 16.3477 29.2773ZM8.92969 23.2891C8.46094 21.8594 8.20312 19.418 8.20312 17.8242C8.20312 15 9.00781 12.1484 10.3945 9.92969C9.18359 9.49609 8.75781 8.78125 8.75781 7.42188C8.75781 5.6875 10.1602 4.28516 11.8945 4.28516C13.1992 4.28516 13.875 4.85938 14.3477 5.99219C16.5703 4.45313 19.2422 3.55859 22.125 3.55859C25.2031 3.55859 28.043 4.58203 30.3477 6.3125C30.8984 5.41406 31.4531 5.03125 32.582 5.03125C34.3164 5.03125 35.7188 6.4375 35.7188 8.16797C35.7188 9.46094 35.375 10.1328 34.2617 10.6094C35.3984 12.6758 36.0508 15.0625 36.0508 17.6016C36.0508 19.1992 35.7891 21.8594 35.3164 23.293C37.6289 26.5352 39.0078 30.2188 39.0078 34.6914C39.0078 35.4766 38.9648 36.1719 38.8828 36.7969C42.2227 32.9258 44.2422 27.8828 44.2422 22.3711C44.2422 10.1523 34.3398 0.25 22.1289 0.25C9.91797 0.25 0 10.1562 0 22.375C0 27.8906 2.02344 32.9375 5.36719 36.8086C5.28125 36.1836 5.23438 35.4883 5.23438 34.6992C5.23828 30.2227 6.61719 26.5352 8.92969 23.2891ZM22.332 12.2852C19.6602 12.2852 17.4961 14.9844 17.4961 18.3125C17.4961 21.6445 19.6602 22.1445 22.332 22.1445C25.0039 22.1445 27.168 21.6406 27.168 18.3125C27.1641 14.9844 25 12.2852 22.332 12.2852ZM24.1289 16.5234C23.7031 16.5391 23.2031 16.332 22.875 16.5078C22.5508 16.7188 22.1914 16.5078 22.1914 16.5078C21.8633 16.332 21.3633 16.5391 20.9375 16.5234C20.2422 16.5 20.0273 15.4062 20.832 14.7266C21.6367 14.043 22.5352 14.0273 22.5352 14.0273C22.5352 14.0273 23.4297 14.0391 24.2344 14.7266C25.0352 15.4062 24.8281 16.4961 24.1289 16.5234ZM27.3047 11.6445C26.7969 11.6445 26.3828 12.1719 26.3828 12.8242C26.3828 13.4766 26.7969 14.0078 27.3047 14.0078C27.8125 14.0078 28.2266 13.4766 28.2266 12.8242C28.2227 12.168 27.8086 11.6445 27.3047 11.6445Z" fill="#002163"/>
<path d="M31.168 33.0703C31.168 32.5312 30.8008 32.0938 30.3477 32.0938H29.3086V33.2031C29.3086 34.3281 29.1172 35.3984 28.7734 36.3789C30.125 36.1367 31.168 34.7461 31.168 33.0703ZM38.8711 36.8008C38.9492 36.1797 38.9961 35.4844 38.9961 34.6992C38.9961 30.2227 37.6133 26.5391 35.3047 23.2969C35.7773 21.8633 36.0352 19.2031 36.0352 17.6055C36.0352 15.0664 35.3828 12.6797 34.25 10.6133C35.3633 10.1367 35.707 9.46484 35.707 8.17188C35.707 6.44141 34.3008 5.03516 32.5703 5.03516C31.4414 5.03516 30.8906 5.42188 30.3359 6.31641C28.0312 4.58594 25.1914 3.5625 22.1133 3.5625C19.2344 3.5625 16.5547 4.45703 14.3359 5.99609C13.8594 4.86328 13.1836 4.28906 11.8789 4.28906C10.1484 4.28906 8.74609 5.69141 8.74609 7.42578C8.74609 8.78516 9.17188 9.5 10.3828 9.93359C8.99609 12.1484 8.19141 15.0039 8.19141 17.8281C8.19141 19.4258 8.45312 21.8633 8.91797 23.293C6.60937 26.5352 5.22656 30.2227 5.22656 34.7031C5.22656 35.4922 5.26953 36.1875 5.35938 36.8125C8.00391 39.8867 11.4844 42.2266 15.4414 43.4727C17.6719 42.9609 19.7305 41.6055 19.8008 39.8828C19.8516 38.5508 18.2148 37.7344 16.0078 37.2344C15.4453 36.0391 15.125 34.668 15.125 33.2031V29.8828C15.125 29.7852 15.1133 29.6914 15.125 29.6133L15.1172 29.0273C15.1172 26.4844 29.125 26.5469 29.125 28.7812V30.4336H30.1328C31.3555 30.4336 32.3516 31.6133 32.3516 33.0664C32.3516 34.582 31.7812 35.9375 30.8867 36.8594C27.5195 37.2578 24.4414 38.1172 24.5117 39.9375C24.582 41.6172 26.543 42.9492 28.7148 43.4922C32.6602 42.2578 36.1797 39.9375 38.8711 36.8008ZM16.9297 14.0039C16.4219 14.0039 16.0078 13.4727 16.0078 12.8203C16.0078 12.168 16.4219 11.6406 16.9297 11.6406C17.4375 11.6406 17.8477 12.168 17.8477 12.8203C17.8477 13.4727 17.4375 14.0039 16.9297 14.0039ZM22.332 22.1445C19.6602 22.1445 17.4961 21.6406 17.4961 18.3125C17.4961 14.9844 19.6602 12.2852 22.332 12.2852C25.0039 12.2852 27.168 14.9844 27.168 18.3125C27.1641 21.6445 25 22.1445 22.332 22.1445ZM27.3047 14.0039C26.7969 14.0039 26.3828 13.4727 26.3828 12.8203C26.3828 12.168 26.7969 11.6406 27.3047 11.6406C27.8125 11.6406 28.2266 12.168 28.2266 12.8203C28.2227 13.4727 27.8086 14.0039 27.3047 14.0039Z" fill="white"/>
</svg>
