<svg width="45" height="45" viewBox="0 0 45 45" fill="none" xmlns="http://www.w3.org/2000/svg">
<g clip-path="url(#clip0_3822_466)">
<path d="M40.0781 48.9551C40.0781 58.6632 32.2081 66.5332 22.5 66.5332C12.7919 66.5332 4.92188 58.6632 4.92188 48.9551C4.92188 39.2469 12.7919 31.377 22.5 31.377C32.2081 31.377 40.0781 39.2469 40.0781 48.9551Z" fill="#8FC5FF"/>
<path d="M38.5754 19.1137C37.8374 18.6457 36.7754 17.9977 36.7754 17.5657C36.7987 16.6853 37.0267 15.8225 37.4414 15.0457C38.0534 13.5157 38.6834 11.9497 37.8914 10.7977C37.0994 9.64566 35.4074 9.77166 33.7874 9.89766C32.9937 10.0795 32.1691 10.0795 31.3754 9.89766C30.9321 9.16118 30.6499 8.33913 30.5474 7.48566C30.1874 5.84766 29.8094 4.15566 28.4594 3.70566C27.1094 3.25566 25.9034 4.37166 24.6974 5.50566C24.0134 6.11766 23.0954 6.94566 22.6274 6.94566C22.1594 6.94566 21.2234 6.11766 20.5394 5.50566C19.3514 4.40766 18.1094 3.29166 16.7774 3.70566C15.4454 4.11966 14.9954 5.77566 14.6354 7.41366C14.5239 8.26203 14.2357 9.07758 13.7894 9.80766C12.9971 10.0015 12.1697 10.0015 11.3774 9.80766C9.77541 9.66366 8.10141 9.51966 7.29141 10.7077C6.48141 11.8957 7.11141 13.4257 7.72341 14.9557C8.14191 15.732 8.37596 16.5943 8.40741 17.4757C8.26341 17.9077 7.25541 18.5557 6.51741 19.0237C5.13141 19.8877 3.69141 20.8237 3.69141 22.2637C3.69141 23.7037 5.13141 24.6397 6.51741 25.5217C7.25541 25.9897 8.31741 26.6197 8.40741 27.0517C8.37615 27.9388 8.14217 28.807 7.72341 29.5897C7.11141 31.1197 6.48141 32.6857 7.29141 33.8377C8.10141 34.9897 9.77541 34.8637 11.3774 34.7197C12.1779 34.5673 13.0025 34.5981 13.7894 34.8097C14.2323 35.5413 14.5203 36.3562 14.6354 37.2037C14.9954 38.8417 15.3734 40.5517 16.7054 41.0017C16.8944 41.1144 17.1014 41.1935 17.3174 41.2357C18.5436 41.0169 19.6564 40.381 20.4674 39.4357C21.1514 38.8237 22.0874 37.9777 22.5554 37.9777C23.0234 37.9777 23.9414 38.8237 24.6254 39.4357C25.8314 40.5157 27.0734 41.6497 28.3874 41.2357C29.7014 40.8217 30.1874 39.0757 30.4754 37.4377C30.5772 36.5897 30.8595 35.7733 31.3034 35.0437C32.0903 34.8321 32.9149 34.8013 33.7154 34.9537C35.3354 35.0977 36.9914 35.2597 37.8194 34.0717C38.6474 32.8837 37.9814 31.3537 37.3694 29.8237C36.9545 29.0404 36.7265 28.1717 36.7034 27.2857C36.8294 26.8537 37.8374 26.2237 38.5034 25.7557C39.9074 24.8737 41.3474 23.9557 41.3474 22.4977C41.3474 21.0397 39.9794 19.9777 38.5754 19.1137V19.1137ZM37.6214 24.0997C36.4334 24.8377 35.3174 25.5397 34.9754 26.6197C34.8107 27.9067 35.0631 29.2126 35.6954 30.3457C36.0374 31.1737 36.5774 32.5417 36.3434 32.9017C36.1094 33.2617 34.7234 33.0997 33.8774 33.0277C32.6619 32.7488 31.3869 32.9082 30.2774 33.4777C29.4034 34.4225 28.8711 35.6329 28.7654 36.9157C28.5854 37.7257 28.2434 39.2557 27.8654 39.3817C27.4874 39.5077 26.3894 38.4457 25.8854 37.9957C25.0446 36.9993 23.8889 36.3199 22.6094 36.0697C21.3229 36.3146 20.1599 36.9947 19.3154 37.9957C18.8294 38.4457 17.6414 39.4897 17.3354 39.3817C17.0294 39.2737 16.6154 37.7257 16.4354 36.9157C16.3347 35.6351 15.8088 34.425 14.9414 33.4777C14.3185 33.0697 13.5778 32.8798 12.8354 32.9377C12.3122 32.9412 11.7896 32.9713 11.2694 33.0277C10.4414 33.0277 9.03741 33.2257 8.82141 32.9017C8.60541 32.5777 9.03741 31.1737 9.39741 30.4357C10.0297 29.3026 10.2821 27.9967 10.1174 26.7097C9.79341 25.6297 8.67741 24.9097 7.48941 24.1897C6.69741 23.6857 5.49141 22.9297 5.49141 22.3897C5.49141 21.8497 6.69741 21.1657 7.48941 20.5897C8.67741 19.8517 9.79341 19.1317 10.1174 18.0697C10.2822 16.7768 10.0299 15.4652 9.39741 14.3257C9.03741 13.5517 8.51541 12.1657 8.76741 11.8237C9.01941 11.4817 10.3874 11.6257 11.2154 11.6977C12.4314 11.9673 13.7032 11.8084 14.8154 11.2477C15.6828 10.3003 16.2087 9.09019 16.3094 7.80966C16.4894 6.99966 16.8314 5.46966 17.2094 5.34366C17.5874 5.21766 18.7034 6.27966 19.1894 6.72966C20.0347 7.72626 21.1983 8.40026 22.4834 8.63766C23.7615 8.395 24.9177 7.72157 25.7594 6.72966C26.2634 6.27966 27.4334 5.23566 27.7394 5.34366C28.0454 5.45166 28.4594 6.99966 28.6394 7.80966C28.7451 9.09241 29.2774 10.3028 30.1514 11.2477C31.2609 11.8172 32.5359 11.9765 33.7514 11.6977C34.5974 11.6977 35.9834 11.4997 36.2174 11.8237C36.4514 12.1477 35.9114 13.6237 35.5694 14.3617C34.9369 15.5012 34.6846 16.8128 34.8494 18.1057C35.1914 19.1677 36.3074 19.9057 37.4954 20.6257C38.2874 21.1297 39.4934 21.8857 39.4934 22.4257C39.4934 22.9657 38.4134 23.5957 37.6214 24.0997V24.0997Z" fill="#494949"/>
<path d="M27.8298 16.5937L20.4858 26.2057L17.2098 22.7857C17.1277 22.7019 17.0297 22.6353 16.9215 22.5899C16.8133 22.5444 16.6972 22.521 16.5798 22.521C16.4625 22.521 16.3463 22.5444 16.2381 22.5899C16.13 22.6353 16.0319 22.7019 15.9498 22.7857C15.8655 22.8694 15.7985 22.9689 15.7528 23.0786C15.7071 23.1883 15.6836 23.3059 15.6836 23.4247C15.6836 23.5435 15.7071 23.6612 15.7528 23.7708C15.7985 23.8805 15.8655 23.98 15.9498 24.0637L19.8378 28.2037C19.9209 28.2916 20.0215 28.361 20.1332 28.4075C20.2448 28.454 20.3649 28.4766 20.4858 28.4737C20.6139 28.4636 20.7387 28.4281 20.8531 28.3694C20.9674 28.3107 21.0689 28.2299 21.1518 28.1317L29.1258 17.6917C29.2544 17.5021 29.3058 17.2706 29.2696 17.0444C29.2334 16.8182 29.1123 16.6143 28.931 16.4743C28.7496 16.3343 28.5217 16.2687 28.2937 16.2909C28.0657 16.313 27.8547 16.4214 27.7038 16.5937H27.8298Z" fill="#494949"/>
</g>
<defs>
<clipPath id="clip0_3822_466">
<rect width="45" height="45" fill="white"/>
</clipPath>
</defs>
</svg>
