<svg width="50" height="50" viewBox="0 0 50 50" fill="none" xmlns="http://www.w3.org/2000/svg">
<g clip-path="url(#clip0_17013_450)">
<circle cx="25" cy="54.3945" r="19.5312" fill="#8FC5FF"/>
<path d="M38.7583 30.6563C38.662 30.6562 38.5667 30.6752 38.4777 30.712C38.3888 30.7489 38.3079 30.8029 38.2399 30.8709C38.1718 30.939 38.1178 31.0198 38.081 31.1088C38.0441 31.1977 38.0252 31.2931 38.0252 31.3894V34.258C37.1301 34.5637 36.4844 35.4126 36.4844 36.4099C36.4844 37.6637 37.5045 38.6838 38.7583 38.6838C39.1182 38.6838 39.4586 38.5993 39.7615 38.4499L42.2003 40.8887C42.3435 41.0318 42.5312 41.1033 42.7187 41.1033C42.9063 41.1033 43.094 41.0318 43.2372 40.8887C43.3053 40.8206 43.3593 40.7398 43.3961 40.6509C43.433 40.5619 43.4519 40.4666 43.4519 40.3703C43.4519 40.274 43.433 40.1787 43.3961 40.0897C43.3593 40.0008 43.3053 39.92 43.2372 39.8519L40.7984 37.4131C40.9525 37.1012 41.0326 36.7579 41.0323 36.41C41.0323 35.4127 40.3866 34.5638 39.4915 34.2581V31.3895C39.4915 31.2932 39.4726 31.1978 39.4357 31.1089C39.3989 31.0199 39.3449 30.9391 39.2768 30.871C39.2087 30.8029 39.1278 30.7489 39.0389 30.712C38.9499 30.6752 38.8546 30.6562 38.7583 30.6563ZM39.566 36.4099C39.566 36.8552 39.2036 37.2176 38.7583 37.2176C38.3129 37.2176 37.9506 36.8552 37.9506 36.4099C37.9506 35.9645 38.3129 35.6022 38.7583 35.6022C39.2036 35.6022 39.566 35.9645 39.566 36.4099Z" fill="#494949"/>
<path d="M10.6773 26.4152C10.6773 25.6554 10.0591 25.0371 9.29923 25.0371H6.08117C5.32138 25.0371 4.70312 25.6553 4.70312 26.4152V29.6332C4.70312 30.393 5.32128 31.0113 6.08117 31.0113H9.29923C10.059 31.0113 10.6773 30.3931 10.6773 29.6332V26.4152ZM9.21106 29.5449H6.16944V26.5033H9.21116L9.21106 29.5449ZM18.3481 26.4152C18.3481 25.6554 17.73 25.0371 16.9701 25.0371H13.752C12.9922 25.0371 12.374 25.6553 12.374 26.4152V29.6332C12.374 30.393 12.9921 31.0113 13.752 31.0113H16.9701C17.7299 31.0113 18.3481 30.3931 18.3481 29.6332V26.4152ZM16.8819 29.5449H13.8402V26.5033H16.8819V29.5449ZM26.019 26.4152C26.019 25.6554 25.4008 25.0371 24.6411 25.0371H21.423C20.6632 25.0371 20.045 25.6553 20.045 26.4152V29.6332C20.045 30.393 20.6631 31.0113 21.423 31.0113H24.6411C25.4008 31.0113 26.019 30.3931 26.019 29.6332V26.4152ZM24.5528 29.5449H21.5112V26.5033H24.5528V29.5449ZM6.08117 38.2316H9.29923C10.059 38.2316 10.6773 37.6135 10.6773 36.8536V33.6355C10.6773 32.8757 10.0591 32.2575 9.29923 32.2575H6.08117C5.32138 32.2575 4.70312 32.8756 4.70312 33.6355V36.8536C4.70322 37.6134 5.32138 38.2316 6.08117 38.2316ZM6.16944 33.7237H9.21116V36.7653H6.16944V33.7237ZM13.752 38.2316H16.9701C17.7299 38.2316 18.3481 37.6135 18.3481 36.8536V33.6355C18.3481 32.8757 17.73 32.2575 16.9701 32.2575H13.752C12.9922 32.2575 12.374 32.8756 12.374 33.6355V36.8536C12.3741 37.6134 12.9922 38.2316 13.752 38.2316ZM13.8403 33.7237H16.882V36.7653H13.8403V33.7237ZM24.6411 32.2575H21.423C20.6632 32.2575 20.045 32.8756 20.045 33.6355V36.8536C20.045 37.6134 20.6631 38.2316 21.423 38.2316H24.6411C25.4008 38.2316 26.019 37.6135 26.019 36.8536V33.6355C26.019 32.8757 25.4008 32.2575 24.6411 32.2575ZM24.5528 36.7654H21.5112V33.7238H24.5528V36.7654Z" fill="#494949"/>
<path d="M10.6773 18.9152C10.6773 18.1554 10.0591 17.5371 9.29923 17.5371H6.08117C5.32138 17.5371 4.70312 18.1553 4.70312 18.9152V22.1332C4.70312 22.893 5.32128 23.5113 6.08117 23.5113H9.29923C10.059 23.5113 10.6773 22.8931 10.6773 22.1332V18.9152ZM9.21106 22.0449H6.16944V19.0033H9.21116L9.21106 22.0449ZM18.3481 18.9152C18.3481 18.1554 17.73 17.5371 16.9701 17.5371H13.752C12.9922 17.5371 12.374 18.1553 12.374 18.9152V22.1332C12.374 22.893 12.9921 23.5113 13.752 23.5113H16.9701C17.7299 23.5113 18.3481 22.8931 18.3481 22.1332V18.9152ZM16.8819 22.0449H13.8402V19.0033H16.8819V22.0449ZM26.019 18.9152C26.019 18.1554 25.4008 17.5371 24.6411 17.5371H21.423C20.6632 17.5371 20.045 18.1553 20.045 18.9152V22.1332C20.045 22.893 20.6631 23.5113 21.423 23.5113H24.6411C25.4008 23.5113 26.019 22.8931 26.019 22.1332V18.9152ZM24.5528 22.0449H21.5112V19.0033H24.5528V22.0449Z" fill="#494949"/>
<path d="M33.1773 18.9152C33.1773 18.1554 32.5591 17.5371 31.7992 17.5371H28.5812C27.8214 17.5371 27.2031 18.1553 27.2031 18.9152V22.1332C27.2031 22.893 27.8213 23.5113 28.5812 23.5113H31.7992C32.559 23.5113 33.1773 22.8931 33.1773 22.1332V18.9152ZM31.7111 22.0449H28.6694V19.0033H31.7112L31.7111 22.0449ZM40.8481 18.9152C40.8481 18.1554 40.23 17.5371 39.4701 17.5371H36.252C35.4922 17.5371 34.874 18.1553 34.874 18.9152V22.1332C34.874 22.893 35.4921 23.5113 36.252 23.5113H39.4701C40.2299 23.5113 40.8481 22.8931 40.8481 22.1332V18.9152ZM39.3819 22.0449H36.3402V19.0033H39.3819V22.0449Z" fill="#494949"/>
<path d="M26.1006 40.2028H5.06657C3.08131 40.2028 1.46622 38.5877 1.46622 36.6026V30.5402C1.46622 30.1352 1.13798 29.8071 0.733109 29.8071C0.328237 29.8071 0 30.1352 0 30.5402V36.6026C0 39.3962 2.27283 41.669 5.06657 41.669H26.1006C26.5056 41.669 26.8337 41.3409 26.8337 40.9359C26.8337 40.531 26.5056 40.2028 26.1006 40.2028ZM0.733109 28.149C0.927542 28.149 1.11401 28.0717 1.2515 27.9342C1.38898 27.7967 1.46622 27.6103 1.46622 27.4158V12.7089H34.4451C34.8501 12.7089 35.1782 12.3808 35.1782 11.9758C35.1782 11.5708 34.8501 11.2427 34.4451 11.2427H1.46622V8.8112C1.46622 6.82594 3.08131 5.21095 5.06657 5.21095H10.1713V6.77423C10.1713 7.90527 11.0915 8.82547 12.2225 8.82547C13.3535 8.82547 14.2737 7.90527 14.2737 6.77423V5.21095H28.9965V6.77423C28.9965 7.90527 29.9166 8.82547 31.0477 8.82547C32.1787 8.82547 33.0989 7.90527 33.0989 6.77423V5.21095H38.2036C40.1889 5.21095 41.8039 6.82594 41.8039 8.8112V11.2427H37.5693C37.1643 11.2427 36.8362 11.5708 36.8362 11.9758C36.8362 12.3808 37.1643 12.7089 37.5693 12.7089H41.8039V23.5091C41.8039 23.914 42.1321 24.2422 42.537 24.2422C42.942 24.2422 43.2702 23.914 43.2702 23.5091V8.8112C43.2702 6.01756 40.9973 3.74473 38.2036 3.74473H33.0989V2.14694C33.0989 1.0159 32.1787 0.0957031 31.0477 0.0957031C29.9166 0.0957031 28.9965 1.0159 28.9965 2.14694V3.74483H14.2737V2.14694C14.2737 1.0159 13.3535 0.0957031 12.2225 0.0957031C11.0915 0.0957031 10.1713 1.0159 10.1713 2.14694V3.74483H5.06657C2.27283 3.74473 0 6.01756 0 8.8112V27.4158C0 27.6103 0.0772381 27.7967 0.214723 27.9342C0.352207 28.0717 0.538677 28.149 0.733109 28.149ZM30.4627 2.14694C30.4629 1.99185 30.5246 1.84315 30.6342 1.73348C30.7439 1.6238 30.8926 1.5621 31.0477 1.56192C31.2028 1.56208 31.3515 1.62376 31.4612 1.73344C31.5708 1.84312 31.6325 1.99183 31.6327 2.14694V6.77433C31.6327 7.09699 31.3702 7.35935 31.0477 7.35935C30.7251 7.35935 30.4627 7.0969 30.4627 6.77433V2.14694ZM11.6375 2.14694C11.6375 1.82428 11.8999 1.56192 12.2225 1.56192C12.5451 1.56192 12.8075 1.82437 12.8075 2.14694V6.77433C12.8075 7.09699 12.5451 7.35935 12.2225 7.35935C11.8999 7.35935 11.6375 7.0969 11.6375 6.77433V2.14694ZM49.6021 33.4372C49.5485 33.2523 49.4243 33.0958 49.2564 33.0016C49.0884 32.9074 48.8901 32.8831 48.7044 32.9339C48.5186 32.9847 48.3603 33.1066 48.2637 33.2731C48.167 33.4396 48.1397 33.6375 48.1878 33.824C48.3529 34.4298 48.4594 35.05 48.5055 35.6762H47.3446C46.9396 35.6762 46.6115 36.0044 46.6115 36.4093C46.6115 36.8143 46.9396 37.1424 47.3446 37.1424H48.5063C48.3465 39.2877 47.4913 41.2422 46.1659 42.7811L45.3478 41.963C45.2103 41.8255 45.0239 41.7483 44.8295 41.7482C44.635 41.7482 44.4486 41.8254 44.3111 41.9629C44.243 42.0309 44.189 42.1117 44.1521 42.2007C44.1152 42.2896 44.0963 42.3849 44.0963 42.4812C44.0962 42.5775 44.1152 42.6728 44.152 42.7618C44.1889 42.8507 44.2429 42.9315 44.311 42.9996L45.1291 43.8178C43.5903 45.1432 41.6357 45.9984 39.4904 46.1582V44.9963C39.4904 44.5913 39.1623 44.2632 38.7573 44.2632C38.3524 44.2632 38.0242 44.5913 38.0242 44.9963V46.1582C35.8789 45.9984 33.9245 45.1432 32.3856 43.8178L33.2039 42.9996C33.272 42.9315 33.326 42.8507 33.3628 42.7617C33.3997 42.6728 33.4186 42.5775 33.4186 42.4812C33.4186 42.3849 33.3997 42.2896 33.3628 42.2006C33.326 42.1117 33.272 42.0309 33.2039 41.9628C33.1358 41.8947 33.055 41.8407 32.966 41.8039C32.8771 41.767 32.7818 41.7481 32.6855 41.7481C32.5892 41.7481 32.4939 41.767 32.4049 41.8039C32.316 41.8407 32.2351 41.8947 32.1671 41.9628L31.3488 42.781C30.0236 41.2422 29.1683 39.2877 29.0084 37.1424H30.1703C30.5752 37.1424 30.9034 36.8143 30.9034 36.4093C30.9034 36.0044 30.5752 35.6762 30.1703 35.6762H29.0084C29.1683 33.531 30.0235 31.5764 31.3488 30.0375L32.1671 30.8558C32.3102 30.9989 32.4979 31.0704 32.6854 31.0704C32.873 31.0704 33.0607 30.9989 33.2039 30.8557C33.272 30.7876 33.326 30.7068 33.3628 30.6179C33.3997 30.5289 33.4186 30.4336 33.4186 30.3373C33.4186 30.241 33.3996 30.1457 33.3628 30.0568C33.3259 29.9678 33.2719 29.887 33.2038 29.819L32.3856 29.0008C33.9245 27.6755 35.879 26.8203 38.0243 26.6604V27.8223C38.0243 28.2273 38.3525 28.5554 38.7574 28.5554C39.1624 28.5554 39.4905 28.2273 39.4905 27.8223V26.6612C41.5991 26.8172 43.566 27.6424 45.1344 28.9955L44.311 29.819C44.2429 29.8871 44.1889 29.9679 44.1521 30.0568C44.1152 30.1458 44.0963 30.2411 44.0963 30.3374C44.0963 30.4337 44.1152 30.529 44.1521 30.618C44.1889 30.7069 44.2429 30.7878 44.311 30.8558C44.3791 30.9239 44.4599 30.9779 44.5489 31.0148C44.6378 31.0516 44.7332 31.0706 44.8295 31.0706C44.9257 31.0705 45.0211 31.0516 45.11 31.0147C45.199 30.9779 45.2798 30.9239 45.3479 30.8558L46.1696 30.0341C46.4763 30.3912 46.7573 30.7697 47.0104 31.1666C47.0615 31.249 47.1285 31.3204 47.2075 31.3767C47.2864 31.433 47.3758 31.473 47.4703 31.4946C47.5648 31.5161 47.6627 31.5187 47.7582 31.5021C47.8538 31.4856 47.9451 31.4502 48.0269 31.3982C48.1086 31.3461 48.1793 31.2783 48.2347 31.1987C48.2901 31.1192 48.3292 31.0294 48.3497 30.9346C48.3702 30.8399 48.3716 30.742 48.354 30.6466C48.3364 30.5513 48.3001 30.4604 48.2471 30.3792C46.1691 27.1154 42.6215 25.167 38.7574 25.167C32.5583 25.167 27.5149 30.2104 27.5149 36.4095C27.5149 42.6087 32.5583 47.6519 38.7574 47.6519C44.9566 47.6519 50 42.6085 50 36.4093C50.0003 35.4053 49.8665 34.4058 49.6021 33.4372Z" fill="#494949"/>
</g>
<defs>
<clipPath id="clip0_17013_450">
<rect width="50" height="50" fill="white"/>
</clipPath>
</defs>
</svg>
